<?xml version="1.0" standalone="no"?>
<!DOCTYPE svg PUBLIC "-//W3C//DTD SVG 20010904//EN"
 "http://www.w3.org/TR/2001/REC-SVG-20010904/DTD/svg10.dtd">
<svg version="1.0" xmlns="http://www.w3.org/2000/svg"
 width="500.000000pt" height="500.000000pt" viewBox="0 0 500.000000 500.000000"
 preserveAspectRatio="xMidYMid meet">

<g transform="translate(0.000000,500.000000) scale(0.100000,-0.100000)"
fill="#000000" stroke="none">
<path d="M2635 4765 c-64 -42 -89 -86 -93 -164 -3 -79 20 -129 83 -173 62 -43
130 -48 200 -13 82 39 110 86 110 181 0 66 -3 76 -31 110 -53 65 -77 78 -157
82 -64 3 -76 1 -112 -23z"/>
<path d="M1613 3618 l0 -723 -281 -3 c-155 -1 -282 -3 -283 -5 0 -1 -3 -417
-5 -925 l-5 -923 308 3 c269 3 314 6 358 22 108 40 173 110 214 228 37 107 43
219 39 721 l-3 477 105 0 c264 1 381 79 442 295 23 79 23 88 23 640 -1 585 -3
623 -46 721 -27 65 -90 127 -162 160 l-62 29 -321 3 -322 3 1 -723z m515 378
c16 -15 17 -62 20 -572 l2 -554 -24 -25 c-21 -21 -35 -25 -81 -25 l-55 0 0
601 0 601 60 -4 c39 -3 67 -10 78 -22z m-567 -1455 c18 -22 19 -53 19 -573 l0
-549 -25 -24 c-20 -21 -34 -25 -80 -25 l-55 0 0 601 0 601 61 -4 c49 -4 66 -9
80 -27z"/>
<path d="M2540 3465 l0 -875 -27 0 c-73 0 -155 -73 -173 -156 -44 -192 197
-325 336 -186 52 53 71 130 51 209 l-9 33 91 0 91 0 0 925 0 925 -180 0 -180
0 0 -875z"/>
<path d="M2930 3415 l0 -925 180 0 180 0 2 455 3 456 89 -443 c49 -244 91
-449 94 -455 3 -10 49 -13 183 -13 l179 0 0 925 0 925 -180 0 -180 0 -2 -427
-3 -427 -79 414 c-43 228 -81 421 -84 428 -3 9 -51 12 -193 12 l-189 0 0 -925z"/>
<path d="M3091 2428 c-6 -18 -69 -224 -140 -458 -71 -234 -188 -616 -260 -850
-72 -233 -127 -428 -123 -431 9 -8 310 -99 326 -99 7 0 66 174 142 422 71 232
130 415 132 407 1 -8 -15 -197 -38 -419 -22 -223 -41 -420 -42 -439 l-3 -33
172 -53 c149 -45 173 -50 177 -36 3 9 125 407 271 885 146 478 264 869 263
870 -21 14 -335 101 -339 94 -3 -5 -62 -191 -130 -413 -68 -223 -124 -403
-125 -402 -2 1 18 197 44 434 25 238 43 435 39 439 -3 4 -75 28 -159 54 -84
26 -163 50 -175 54 -18 6 -23 2 -32 -26z"/>
<path d="M2175 2148 c-24 -141 -172 -1474 -164 -1479 12 -7 338 -44 342 -38 7
9 178 1502 172 1507 -6 6 -270 41 -317 42 -23 0 -28 -5 -33 -32z"/>
</g>
</svg>
